{
  "accessors": [
    {
      "bufferView": 0,
      "componentType": 5125,
      "count": 18717,
      "type": "SCALAR"
    },
    {
      "bufferView": 1,
      "componentType": 5126,
      "count": 5312,
      "max": [
        13.6111068725586,
        30.7852802276611,
        4.25516128540039
      ],
      "min": [
        -13.6111068725586,
        -0.0947446823120117,
        -12.3487777709961
      ],
      "type": "VEC3"
    },
    {
      "bufferView": 2,
      "componentType": 5126,
      "count": 5312,
      "type": "VEC3"
    },
    {
      "bufferView": 3,
      "componentType": 5126,
      "count": 5312,
      "type": "VEC2"
    }
  ],
  "asset": {
    "generator": "Substance Painter 6.2.0",
    "version": "2.0"
  },
  "bufferViews": [
    {
      "buffer": 0,
      "byteLength": 74868,
      "target": 34963
    },
    {
      "buffer": 0,
      "byteLength": 63744,
      "byteOffset": 74868,
      "target": 34962
    },
    {
      "buffer": 0,
      "byteLength": 63744,
      "byteOffset": 138612,
      "target": 34962
    },
    {
      "buffer": 0,
      "byteLength": 42496,
      "byteOffset": 202356,
      "target": 34962
    }
  ],
  "buffers": [
    {
      "byteLength": 244852,
      "uri": "Sub_Marco.bin"
    }
  ],
  "images": [
    {
      "uri": "MAT_Marco_baseColor.png"
    },
    {
      "uri": "MAT_Marco_occlusionRoughnessMetallic.png"
    },
    {
      "uri": "MAT_Marco_normal.png"
    },
    {
      "uri": "MAT_Marco_emissive.png"
    }
  ],
  "materials": [
    {
      "alphaMode": "OPAQUE",
      "emissiveFactor": [
        1.0,
        1.0,
        1.0
      ],
      "emissiveTexture": {
        "index": 3
      },
      "name": "MAT_Marco",
      "normalTexture": {
        "index": 2
      },
      "occlusionTexture": {
        "index": 1
      },
      "pbrMetallicRoughness": {
        "baseColorTexture": {
          "index": 0
        },
        "metallicRoughnessTexture": {
          "index": 1
        }
      }
    }
  ],
  "meshes": [
    {
      "name": "MDL_Marco",
      "primitives": [
        {
          "attributes": {
            "NORMAL": 2,
            "POSITION": 1,
            "TEXCOORD_0": 3
          },
          "indices": 0,
          "material": 0,
          "mode": 4
        }
      ]
    }
  ],
  "nodes": [
    {
      "children": [
        1
      ],
      "name": "RootNode"
    },
    {
      "children": [
        2
      ],
      "name": "MDL_Marco"
    },
    {
      "mesh": 0,
      "name": "MDL_Marco"
    }
  ],
  "samplers": [
    {
      "magFilter": 9729,
      "minFilter": 9985,
      "wrapS": 10497,
      "wrapT": 10497
    }
  ],
  "scene": 0,
  "scenes": [
    {
      "name": "Scene",
      "nodes": [
        0
      ]
    }
  ],
  "textures": [
    {
      "sampler": 0,
      "source": 0
    },
    {
      "sampler": 0,
      "source": 1
    },
    {
      "sampler": 0,
      "source": 2
    },
    {
      "sampler": 0,
      "source": 3
    }
  ]
}