{
  "accessors": [
    {
      "bufferView": 0,
      "componentType": 5125,
      "count": 27000,
      "type": "SCALAR"
    },
    {
      "bufferView": 1,
      "componentType": 5126,
      "count": 4835,
      "max": [
        3.79277610778809,
        11.1316928863525,
        3.49609971046448
      ],
      "min": [
        -3.71573376655579,
        -0.000999927520751953,
        -3.85373306274414
      ],
      "type": "VEC3"
    },
    {
      "bufferView": 2,
      "componentType": 5126,
      "count": 4835,
      "type": "VEC3"
    },
    {
      "bufferView": 3,
      "componentType": 5126,
      "count": 4835,
      "type": "VEC2"
    }
  ],
  "asset": {
    "generator": "Substance Painter 6.2.0",
    "version": "2.0"
  },
  "bufferViews": [
    {
      "buffer": 0,
      "byteLength": 108000,
      "target": 34963
    },
    {
      "buffer": 0,
      "byteLength": 58020,
      "byteOffset": 108000,
      "target": 34962
    },
    {
      "buffer": 0,
      "byteLength": 58020,
      "byteOffset": 166020,
      "target": 34962
    },
    {
      "buffer": 0,
      "byteLength": 38680,
      "byteOffset": 224040,
      "target": 34962
    }
  ],
  "buffers": [
    {
      "byteLength": 262720,
      "uri": "Pear.bin"
    }
  ],
  "images": [
    {
      "uri": "Pear_baseColor.png"
    },
    {
      "uri": "Pear_occlusionRoughnessMetallic.png"
    },
    {
      "uri": "Pear_normal.png"
    }
  ],
  "materials": [
    {
      "alphaMode": "OPAQUE",
      "name": "Pear",
      "normalTexture": {
        "index": 2
      },
      "occlusionTexture": {
        "index": 1
      },
      "pbrMetallicRoughness": {
        "baseColorTexture": {
          "index": 0
        },
        "metallicRoughnessTexture": {
          "index": 1
        }
      }
    }
  ],
  "meshes": [
    {
      "name": "Pear1",
      "primitives": [
        {
          "attributes": {
            "NORMAL": 2,
            "POSITION": 1,
            "TEXCOORD_0": 3
          },
          "indices": 0,
          "material": 0,
          "mode": 4
        }
      ]
    }
  ],
  "nodes": [
    {
      "children": [
        1
      ],
      "name": "RootNode"
    },
    {
      "children": [
        2
      ],
      "name": "Pear1"
    },
    {
      "mesh": 0,
      "name": "Pear1"
    }
  ],
  "samplers": [
    {
      "magFilter": 9729,
      "minFilter": 9985,
      "wrapS": 10497,
      "wrapT": 10497
    }
  ],
  "scene": 0,
  "scenes": [
    {
      "name": "Scene",
      "nodes": [
        0
      ]
    }
  ],
  "textures": [
    {
      "sampler": 0,
      "source": 0
    },
    {
      "sampler": 0,
      "source": 1
    },
    {
      "sampler": 0,
      "source": 2
    }
  ]
}