{
  "accessors": [
    {
      "bufferView": 0,
      "componentType": 5125,
      "count": 79161,
      "type": "SCALAR"
    },
    {
      "bufferView": 1,
      "componentType": 5126,
      "count": 29909,
      "max": [
        4.49999952316284,
        4.4571738243103,
        1.53345203399658
      ],
      "min": [
        -4.04203271865845,
        -0.565521240234375,
        -1.7801296710968
      ],
      "type": "VEC3"
    },
    {
      "bufferView": 2,
      "componentType": 5126,
      "count": 29909,
      "type": "VEC3"
    },
    {
      "bufferView": 3,
      "componentType": 5126,
      "count": 29909,
      "type": "VEC2"
    },
    {
      "bufferView": 4,
      "componentType": 5125,
      "count": 57909,
      "type": "SCALAR"
    },
    {
      "bufferView": 5,
      "componentType": 5126,
      "count": 16530,
      "max": [
        4.27789831161499,
        4.30807971954346,
        1.52522122859955
      ],
      "min": [
        -4.11713647842407,
        -0.552282869815826,
        -1.67272293567657
      ],
      "type": "VEC3"
    },
    {
      "bufferView": 6,
      "componentType": 5126,
      "count": 16530,
      "type": "VEC3"
    },
    {
      "bufferView": 7,
      "componentType": 5126,
      "count": 16530,
      "type": "VEC2"
    },
    {
      "bufferView": 8,
      "componentType": 5125,
      "count": 44643,
      "type": "SCALAR"
    },
    {
      "bufferView": 9,
      "componentType": 5126,
      "count": 11067,
      "max": [
        4.49999952316284,
        4.28878974914551,
        1.40157461166382
      ],
      "min": [
        -3.95758724212646,
        -0.565521240234375,
        -1.7801296710968
      ],
      "type": "VEC3"
    },
    {
      "bufferView": 10,
      "componentType": 5126,
      "count": 11067,
      "type": "VEC3"
    },
    {
      "bufferView": 11,
      "componentType": 5126,
      "count": 11067,
      "type": "VEC2"
    },
    {
      "bufferView": 12,
      "componentType": 5125,
      "count": 81297,
      "type": "SCALAR"
    },
    {
      "bufferView": 13,
      "componentType": 5126,
      "count": 20109,
      "max": [
        4.46605491638184,
        5.42238140106201,
        1.78792428970337
      ],
      "min": [
        -4.5,
        -0.715876519680023,
        -1.78792405128479
      ],
      "type": "VEC3"
    },
    {
      "bufferView": 14,
      "componentType": 5126,
      "count": 20109,
      "type": "VEC3"
    },
    {
      "bufferView": 15,
      "componentType": 5126,
      "count": 20109,
      "type": "VEC2"
    }
  ],
  "asset": {
    "generator": "Substance Painter 2019.1.0",
    "version": "2.0"
  },
  "bufferViews": [
    {
      "buffer": 0,
      "byteLength": 316644,
      "target": 34963
    },
    {
      "buffer": 0,
      "byteLength": 358908,
      "byteOffset": 316644,
      "target": 34962
    },
    {
      "buffer": 0,
      "byteLength": 358908,
      "byteOffset": 675552,
      "target": 34962
    },
    {
      "buffer": 0,
      "byteLength": 239272,
      "byteOffset": 1034460,
      "target": 34962
    },
    {
      "buffer": 0,
      "byteLength": 231636,
      "byteOffset": 1273732,
      "target": 34963
    },
    {
      "buffer": 0,
      "byteLength": 198360,
      "byteOffset": 1505368,
      "target": 34962
    },
    {
      "buffer": 0,
      "byteLength": 198360,
      "byteOffset": 1703728,
      "target": 34962
    },
    {
      "buffer": 0,
      "byteLength": 132240,
      "byteOffset": 1902088,
      "target": 34962
    },
    {
      "buffer": 0,
      "byteLength": 178572,
      "byteOffset": 2034328,
      "target": 34963
    },
    {
      "buffer": 0,
      "byteLength": 132804,
      "byteOffset": 2212900,
      "target": 34962
    },
    {
      "buffer": 0,
      "byteLength": 132804,
      "byteOffset": 2345704,
      "target": 34962
    },
    {
      "buffer": 0,
      "byteLength": 88536,
      "byteOffset": 2478508,
      "target": 34962
    },
    {
      "buffer": 0,
      "byteLength": 325188,
      "byteOffset": 2567044,
      "target": 34963
    },
    {
      "buffer": 0,
      "byteLength": 241308,
      "byteOffset": 2892232,
      "target": 34962
    },
    {
      "buffer": 0,
      "byteLength": 241308,
      "byteOffset": 3133540,
      "target": 34962
    },
    {
      "buffer": 0,
      "byteLength": 160872,
      "byteOffset": 3374848,
      "target": 34962
    }
  ],
  "buffers": [
    {
      "byteLength": 3535720,
      "uri": "BMW Bike.bin"
    }
  ],
  "images": [
    {
      "uri": "Bike1_baseColor.png"
    },
    {
      "uri": "Bike1_occlusionRoughnessMetallic.png"
    },
    {
      "uri": "Bike2_baseColor.png"
    },
    {
      "uri": "Bike2_occlusionRoughnessMetallic.png"
    },
    {
      "uri": "Bike3_baseColor.png"
    },
    {
      "uri": "Bike3_occlusionRoughnessMetallic.png"
    },
    {
      "uri": "Bike4_baseColor.png"
    },
    {
      "uri": "Bike4_occlusionRoughnessMetallic.png"
    }
  ],
  "materials": [
    {
      "alphaMode": "OPAQUE",
      "name": "Bike1",
      "occlusionTexture": {
        "index": 1
      },
      "pbrMetallicRoughness": {
        "baseColorTexture": {
          "index": 0
        },
        "metallicRoughnessTexture": {
          "index": 1
        }
      }
    },
    {
      "alphaMode": "OPAQUE",
      "name": "Bike2",
      "occlusionTexture": {
        "index": 3
      },
      "pbrMetallicRoughness": {
        "baseColorTexture": {
          "index": 2
        },
        "metallicRoughnessTexture": {
          "index": 3
        }
      }
    },
    {
      "alphaMode": "OPAQUE",
      "name": "Bike3",
      "occlusionTexture": {
        "index": 5
      },
      "pbrMetallicRoughness": {
        "baseColorTexture": {
          "index": 4
        },
        "metallicRoughnessTexture": {
          "index": 5
        }
      }
    },
    {
      "alphaMode": "OPAQUE",
      "name": "Bike4",
      "occlusionTexture": {
        "index": 7
      },
      "pbrMetallicRoughness": {
        "baseColorTexture": {
          "index": 6
        },
        "metallicRoughnessTexture": {
          "index": 7
        }
      }
    }
  ],
  "meshes": [
    {
      "name": "NewBMW",
      "primitives": [
        {
          "attributes": {
            "NORMAL": 2,
            "POSITION": 1,
            "TEXCOORD_0": 3
          },
          "indices": 0,
          "material": 0,
          "mode": 4
        }
      ]
    },
    {
      "name": "NewBMW",
      "primitives": [
        {
          "attributes": {
            "NORMAL": 6,
            "POSITION": 5,
            "TEXCOORD_0": 7
          },
          "indices": 4,
          "material": 2,
          "mode": 4
        }
      ]
    },
    {
      "name": "NewBMW",
      "primitives": [
        {
          "attributes": {
            "NORMAL": 10,
            "POSITION": 9,
            "TEXCOORD_0": 11
          },
          "indices": 8,
          "material": 1,
          "mode": 4
        }
      ]
    },
    {
      "name": "NewBMW",
      "primitives": [
        {
          "attributes": {
            "NORMAL": 14,
            "POSITION": 13,
            "TEXCOORD_0": 15
          },
          "indices": 12,
          "material": 3,
          "mode": 4
        }
      ]
    }
  ],
  "nodes": [
    {
      "children": [
        1,
        3,
        5,
        7
      ],
      "name": "root",
      "scale": [
        22.817813873291,
        22.817813873291,
        22.817813873291
      ],
      "translation": [
        2.10494995117188,
        16.2137145996094,
        0.301251411437988
      ]
    },
    {
      "children": [
        2
      ],
      "name": "NewBMW"
    },
    {
      "mesh": 0,
      "name": "NewBMW"
    },
    {
      "children": [
        4
      ],
      "name": "NewBMW"
    },
    {
      "mesh": 1,
      "name": "NewBMW"
    },
    {
      "children": [
        6
      ],
      "name": "NewBMW"
    },
    {
      "mesh": 2,
      "name": "NewBMW"
    },
    {
      "children": [
        8
      ],
      "name": "NewBMW"
    },
    {
      "mesh": 3,
      "name": "NewBMW"
    }
  ],
  "samplers": [
    {
      "magFilter": 9729,
      "minFilter": 9985,
      "wrapS": 10497,
      "wrapT": 10497
    }
  ],
  "scene": 0,
  "scenes": [
    {
      "name": "Scene",
      "nodes": [
        0
      ]
    }
  ],
  "textures": [
    {
      "sampler": 0,
      "source": 0
    },
    {
      "sampler": 0,
      "source": 1
    },
    {
      "sampler": 0,
      "source": 2
    },
    {
      "sampler": 0,
      "source": 3
    },
    {
      "sampler": 0,
      "source": 4
    },
    {
      "sampler": 0,
      "source": 5
    },
    {
      "sampler": 0,
      "source": 6
    },
    {
      "sampler": 0,
      "source": 7
    }
  ]
}