{
	"asset":{
		"generator":"Khronos glTF Blender I/O v4.0.43",
		"version":"2.0"
	},
	"extensionsUsed":[
		"KHR_materials_specular",
		"KHR_materials_ior"
	],
	"scene":0,
	"scenes":[
		{
			"name":"Scene",
			"nodes":[
				0
			]
		}
	],
	"nodes":[
		{
			"mesh":0,
			"name":"MDL_Handy_Paint_Pail"
		}
	],
	"materials":[
		{
			"alphaCutoff":0.5,
			"alphaMode":"MASK",
			"doubleSided":true,
			"extensions":{
				"KHR_materials_specular":{
					"specularFactor":0.29966995120048523
				},
				"KHR_materials_ior":{
					"ior":1.4499999284744263
				}
			},
			"name":"MAT_Black",
			"normalTexture":{
				"index":0,
				"scale":0.03999999165534973
			},
			"pbrMetallicRoughness":{
				"baseColorTexture":{
					"index":1
				},
				"metallicRoughnessTexture":{
					"index":2
				},
				"roughnessFactor":0.5127362012863159
			}
		},
		{
			"doubleSided":true,
			"extensions":{
				"KHR_materials_specular":{
					"specularFactor":0.20353034138679504
				},
				"KHR_materials_ior":{
					"ior":1.1500000953674316
				}
			},
			"name":"MAT_Handy_Paint_Pail",
			"normalTexture":{
				"index":3,
				"scale":0.25
			},
			"pbrMetallicRoughness":{
				"baseColorFactor":[
					0.749304473400116,
					0,
					0.0030816756188869476,
					1
				],
				"metallicRoughnessTexture":{
					"index":4
				},
				"roughnessFactor":0.41993701457977295
			}
		},
		{
			"alphaCutoff":0.5,
			"alphaMode":"MASK",
			"doubleSided":true,
			"name":"MAT_Handy_Paint_Pail_Sticker",
			"pbrMetallicRoughness":{
				"baseColorTexture":{
					"index":5
				},
				"metallicFactor":0,
				"roughnessFactor":0.104545459151268
			}
		}
	],
	"meshes":[
		{
			"name":"MDL_Handy_Paint_Pail",
			"primitives":[
				{
					"attributes":{
						"POSITION":0,
						"NORMAL":1,
						"TEXCOORD_0":2
					},
					"indices":3,
					"material":0
				},
				{
					"attributes":{
						"POSITION":4,
						"NORMAL":5,
						"TEXCOORD_0":6
					},
					"indices":7,
					"material":1
				},
				{
					"attributes":{
						"POSITION":8,
						"NORMAL":9,
						"TEXCOORD_0":10
					},
					"indices":11,
					"material":2
				}
			]
		}
	],
	"textures":[
		{
			"sampler":0,
			"source":0
		},
		{
			"sampler":0,
			"source":1
		},
		{
			"sampler":0,
			"source":2
		},
		{
			"sampler":0,
			"source":3
		},
		{
			"sampler":0,
			"source":4
		},
		{
			"sampler":0,
			"source":5
		}
	],
	"images":[
		{
			"mimeType":"image/jpeg",
			"name":"MAT_Black_Normal_OpenGL-min",
			"uri":"MAT_Black_Normal_OpenGL-min.jpg"
		},
		{
			"mimeType":"image/jpeg",
			"name":"MAT_Black_Base_Color-min",
			"uri":"MAT_Black_Base_Color-min.jpg"
		},
		{
			"mimeType":"image/png",
			"name":"MAT_Black_Metallic-min",
			"uri":"MAT_Black_Metallic-min.png"
		},
		{
			"mimeType":"image/jpeg",
			"name":"MAT_Handy_Paint_Pail_2_Normal_OpenGL.jpg",
			"uri":"MAT_Handy_Paint_Pail_2_Normal_OpenGL_jpg.jpg"
		},
		{
			"mimeType":"image/png",
			"name":"MAT_Handy_Paint_Pail_2_Metallic-min",
			"uri":"MAT_Handy_Paint_Pail_2_Metallic-min.png"
		},
		{
			"mimeType":"image/jpeg",
			"name":"MAT_Handy_Paint_Pail_Sticker_2_Base_Color-min",
			"uri":"MAT_Handy_Paint_Pail_Sticker_2_Base_Color-min.jpg"
		}
	],
	"accessors":[
		{
			"bufferView":0,
			"componentType":5126,
			"count":13791,
			"max":[
				0.024980101734399796,
				0.16994091868400574,
				0.013672590255737305
			],
			"min":[
				-0.024980101734399796,
				0.00528503954410553,
				-0.09437032043933868
			],
			"type":"VEC3"
		},
		{
			"bufferView":1,
			"componentType":5126,
			"count":13791,
			"type":"VEC3"
		},
		{
			"bufferView":2,
			"componentType":5126,
			"count":13791,
			"type":"VEC2"
		},
		{
			"bufferView":3,
			"componentType":5123,
			"count":60540,
			"type":"SCALAR"
		},
		{
			"bufferView":4,
			"componentType":5126,
			"count":6080,
			"max":[
				0.07492351531982422,
				0.16988372802734375,
				0.08984756469726562
			],
			"min":[
				-0.07492256164550781,
				0.0022311508655548096,
				-0.07428550720214844
			],
			"type":"VEC3"
		},
		{
			"bufferView":5,
			"componentType":5126,
			"count":6080,
			"type":"VEC3"
		},
		{
			"bufferView":6,
			"componentType":5126,
			"count":6080,
			"type":"VEC2"
		},
		{
			"bufferView":7,
			"componentType":5123,
			"count":28170,
			"type":"SCALAR"
		},
		{
			"bufferView":8,
			"componentType":5126,
			"count":168,
			"max":[
				0.03459930419921875,
				0.1254119873046875,
				0.07231426239013672
			],
			"min":[
				-0.03459882736206055,
				0.034476280212402344,
				0.0633707046508789
			],
			"type":"VEC3"
		},
		{
			"bufferView":9,
			"componentType":5126,
			"count":168,
			"type":"VEC3"
		},
		{
			"bufferView":10,
			"componentType":5126,
			"count":168,
			"type":"VEC2"
		},
		{
			"bufferView":11,
			"componentType":5123,
			"count":594,
			"type":"SCALAR"
		}
	],
	"bufferViews":[
		{
			"buffer":0,
			"byteLength":165492,
			"byteOffset":0,
			"target":34962
		},
		{
			"buffer":0,
			"byteLength":165492,
			"byteOffset":165492,
			"target":34962
		},
		{
			"buffer":0,
			"byteLength":110328,
			"byteOffset":330984,
			"target":34962
		},
		{
			"buffer":0,
			"byteLength":121080,
			"byteOffset":441312,
			"target":34963
		},
		{
			"buffer":0,
			"byteLength":72960,
			"byteOffset":562392,
			"target":34962
		},
		{
			"buffer":0,
			"byteLength":72960,
			"byteOffset":635352,
			"target":34962
		},
		{
			"buffer":0,
			"byteLength":48640,
			"byteOffset":708312,
			"target":34962
		},
		{
			"buffer":0,
			"byteLength":56340,
			"byteOffset":756952,
			"target":34963
		},
		{
			"buffer":0,
			"byteLength":2016,
			"byteOffset":813292,
			"target":34962
		},
		{
			"buffer":0,
			"byteLength":2016,
			"byteOffset":815308,
			"target":34962
		},
		{
			"buffer":0,
			"byteLength":1344,
			"byteOffset":817324,
			"target":34962
		},
		{
			"buffer":0,
			"byteLength":1188,
			"byteOffset":818668,
			"target":34963
		}
	],
	"samplers":[
		{
			"magFilter":9729,
			"minFilter":9987
		}
	],
	"buffers":[
		{
			"byteLength":819856,
			"uri":"MDL_Handy_Paint_Pail.bin"
		}
	]
}
