{
  "accessors": [
    {
      "bufferView": 0,
      "componentType": 5125,
      "count": 345885,
      "type": "SCALAR"
    },
    {
      "bufferView": 1,
      "componentType": 5126,
      "count": 65624,
      "max": [
        9.024658203125,
        32.7139587402344,
        21.5472869873047
      ],
      "min": [
        -34.9657897949219,
        -0.670448303222656,
        -22.7574768066406
      ],
      "type": "VEC3"
    },
    {
      "bufferView": 2,
      "componentType": 5126,
      "count": 65624,
      "type": "VEC3"
    },
    {
      "bufferView": 3,
      "componentType": 5126,
      "count": 65624,
      "type": "VEC2"
    },
    {
      "bufferView": 4,
      "componentType": 5125,
      "count": 334176,
      "type": "SCALAR"
    },
    {
      "bufferView": 5,
      "componentType": 5126,
      "count": 65692,
      "max": [
        26.2080688476563,
        42.5359497070313,
        22.7574768066406
      ],
      "min": [
        -34.8092956542969,
        -1.38860321044922,
        -22.141845703125
      ],
      "type": "VEC3"
    },
    {
      "bufferView": 6,
      "componentType": 5126,
      "count": 65692,
      "type": "VEC3"
    },
    {
      "bufferView": 7,
      "componentType": 5126,
      "count": 65692,
      "type": "VEC2"
    },
    {
      "bufferView": 8,
      "componentType": 5125,
      "count": 215775,
      "type": "SCALAR"
    },
    {
      "bufferView": 9,
      "componentType": 5126,
      "count": 43189,
      "max": [
        34.9658203125,
        41.4089660644531,
        22.6917572021484
      ],
      "min": [
        -34.6436767578125,
        -1.4976634979248,
        -22.4530029296875
      ],
      "type": "VEC3"
    },
    {
      "bufferView": 10,
      "componentType": 5126,
      "count": 43189,
      "type": "VEC3"
    },
    {
      "bufferView": 11,
      "componentType": 5126,
      "count": 43189,
      "type": "VEC2"
    }
  ],
  "asset": {
    "generator": "Substance Painter 6.2.0",
    "version": "2.0"
  },
  "bufferViews": [
    {
      "buffer": 0,
      "byteLength": 1383540,
      "target": 34963
    },
    {
      "buffer": 0,
      "byteLength": 787488,
      "byteOffset": 1383540,
      "target": 34962
    },
    {
      "buffer": 0,
      "byteLength": 787488,
      "byteOffset": 2171028,
      "target": 34962
    },
    {
      "buffer": 0,
      "byteLength": 524992,
      "byteOffset": 2958516,
      "target": 34962
    },
    {
      "buffer": 0,
      "byteLength": 1336704,
      "byteOffset": 3483508,
      "target": 34963
    },
    {
      "buffer": 0,
      "byteLength": 788304,
      "byteOffset": 4820212,
      "target": 34962
    },
    {
      "buffer": 0,
      "byteLength": 788304,
      "byteOffset": 5608516,
      "target": 34962
    },
    {
      "buffer": 0,
      "byteLength": 525536,
      "byteOffset": 6396820,
      "target": 34962
    },
    {
      "buffer": 0,
      "byteLength": 863100,
      "byteOffset": 6922356,
      "target": 34963
    },
    {
      "buffer": 0,
      "byteLength": 518268,
      "byteOffset": 7785456,
      "target": 34962
    },
    {
      "buffer": 0,
      "byteLength": 518268,
      "byteOffset": 8303724,
      "target": 34962
    },
    {
      "buffer": 0,
      "byteLength": 345512,
      "byteOffset": 8821992,
      "target": 34962
    }
  ],
  "buffers": [
    {
      "byteLength": 9167504,
      "uri": "PBR - Metallic Roughness.bin"
    }
  ],
  "images": [
    {
      "uri": "Trasnsmission_baseColor.png"
    },
    {
      "uri": "Trasnsmission_occlusionRoughnessMetallic.png"
    }
  ],
  "materials": [
    {
      "alphaMode": "OPAQUE",
      "name": "Trasnsmission",
      "occlusionTexture": {
        "index": 1
      },
      "pbrMetallicRoughness": {
        "baseColorTexture": {
          "index": 0
        },
        "metallicRoughnessTexture": {
          "index": 1
        }
      }
    }
  ],
  "meshes": [
    {
      "name": "Untitled:nodes_3",
      "primitives": [
        {
          "attributes": {
            "NORMAL": 2,
            "POSITION": 1,
            "TEXCOORD_0": 3
          },
          "indices": 0,
          "material": 0,
          "mode": 4
        }
      ]
    },
    {
      "name": "Untitled:nodes_4",
      "primitives": [
        {
          "attributes": {
            "NORMAL": 6,
            "POSITION": 5,
            "TEXCOORD_0": 7
          },
          "indices": 4,
          "material": 0,
          "mode": 4
        }
      ]
    },
    {
      "name": "Untitled:nodes_5",
      "primitives": [
        {
          "attributes": {
            "NORMAL": 10,
            "POSITION": 9,
            "TEXCOORD_0": 11
          },
          "indices": 8,
          "material": 0,
          "mode": 4
        }
      ]
    }
  ],
  "nodes": [
    {
      "children": [
        1,
        3,
        5
      ],
      "name": "RootNode"
    },
    {
      "children": [
        2
      ],
      "name": "Untitled:nodes_3"
    },
    {
      "mesh": 0,
      "name": "Untitled:nodes_3"
    },
    {
      "children": [
        4
      ],
      "name": "Untitled:nodes_4"
    },
    {
      "mesh": 1,
      "name": "Untitled:nodes_4"
    },
    {
      "children": [
        6
      ],
      "name": "Untitled:nodes_5"
    },
    {
      "mesh": 2,
      "name": "Untitled:nodes_5"
    }
  ],
  "samplers": [
    {
      "magFilter": 9729,
      "minFilter": 9985,
      "wrapS": 10497,
      "wrapT": 10497
    }
  ],
  "scene": 0,
  "scenes": [
    {
      "name": "Scene",
      "nodes": [
        0
      ]
    }
  ],
  "textures": [
    {
      "sampler": 0,
      "source": 0
    },
    {
      "sampler": 0,
      "source": 1
    }
  ]
}