{
  "accessors": [
    {
      "bufferView": 0,
      "componentType": 5125,
      "count": 43062,
      "type": "SCALAR"
    },
    {
      "bufferView": 1,
      "componentType": 5126,
      "count": 8056,
      "max": [
        7.73804473876953,
        11.1429595947266,
        6.12382316589355
      ],
      "min": [
        -6.04731750488281,
        -0.012397289276123,
        -7.72516250610352
      ],
      "type": "VEC3"
    },
    {
      "bufferView": 2,
      "componentType": 5126,
      "count": 8056,
      "type": "VEC3"
    },
    {
      "bufferView": 3,
      "componentType": 5126,
      "count": 8056,
      "type": "VEC2"
    }
  ],
  "asset": {
    "generator": "Substance Painter 6.2.0",
    "version": "2.0"
  },
  "bufferViews": [
    {
      "buffer": 0,
      "byteLength": 172248,
      "target": 34963
    },
    {
      "buffer": 0,
      "byteLength": 96672,
      "byteOffset": 172248,
      "target": 34962
    },
    {
      "buffer": 0,
      "byteLength": 96672,
      "byteOffset": 268920,
      "target": 34962
    },
    {
      "buffer": 0,
      "byteLength": 64448,
      "byteOffset": 365592,
      "target": 34962
    }
  ],
  "buffers": [
    {
      "byteLength": 430040,
      "uri": "Sub_Skull.bin"
    }
  ],
  "images": [
    {
      "uri": "MAT_Skull_baseColor.png"
    },
    {
      "uri": "MAT_Skull_occlusionRoughnessMetallic.png"
    },
    {
      "uri": "MAT_Skull_normal.png"
    },
    {
      "uri": "MAT_Skull_emissive.png"
    }
  ],
  "materials": [
    {
      "alphaMode": "OPAQUE",
      "emissiveFactor": [
        1.0,
        1.0,
        1.0
      ],
      "emissiveTexture": {
        "index": 3
      },
      "name": "MAT_Skull",
      "normalTexture": {
        "index": 2
      },
      "occlusionTexture": {
        "index": 1
      },
      "pbrMetallicRoughness": {
        "baseColorTexture": {
          "index": 0
        },
        "metallicRoughnessTexture": {
          "index": 1
        }
      }
    }
  ],
  "meshes": [
    {
      "name": "MDL_Skull",
      "primitives": [
        {
          "attributes": {
            "NORMAL": 2,
            "POSITION": 1,
            "TEXCOORD_0": 3
          },
          "indices": 0,
          "material": 0,
          "mode": 4
        }
      ]
    }
  ],
  "nodes": [
    {
      "children": [
        1
      ],
      "name": "RootNode"
    },
    {
      "children": [
        2
      ],
      "name": "MDL_Skull"
    },
    {
      "mesh": 0,
      "name": "MDL_Skull"
    }
  ],
  "samplers": [
    {
      "magFilter": 9729,
      "minFilter": 9985,
      "wrapS": 10497,
      "wrapT": 10497
    }
  ],
  "scene": 0,
  "scenes": [
    {
      "name": "Scene",
      "nodes": [
        0
      ]
    }
  ],
  "textures": [
    {
      "sampler": 0,
      "source": 0
    },
    {
      "sampler": 0,
      "source": 1
    },
    {
      "sampler": 0,
      "source": 2
    },
    {
      "sampler": 0,
      "source": 3
    }
  ]
}