{
  "accessors": [
    {
      "bufferView": 0,
      "componentType": 5125,
      "count": 60000,
      "type": "SCALAR"
    },
    {
      "bufferView": 1,
      "componentType": 5126,
      "count": 10530,
      "max": [
        7.93422698974609,
        2.15826797485352,
        8.58563613891602
      ],
      "min": [
        -9.01172637939453,
        -0.014068603515625,
        -8.75368499755859
      ],
      "type": "VEC3"
    },
    {
      "bufferView": 2,
      "componentType": 5126,
      "count": 10530,
      "type": "VEC3"
    },
    {
      "bufferView": 3,
      "componentType": 5126,
      "count": 10530,
      "type": "VEC2"
    }
  ],
  "asset": {
    "generator": "Substance Painter 6.2.0",
    "version": "2.0"
  },
  "bufferViews": [
    {
      "buffer": 0,
      "byteLength": 240000,
      "target": 34963
    },
    {
      "buffer": 0,
      "byteLength": 126360,
      "byteOffset": 240000,
      "target": 34962
    },
    {
      "buffer": 0,
      "byteLength": 126360,
      "byteOffset": 366360,
      "target": 34962
    },
    {
      "buffer": 0,
      "byteLength": 84240,
      "byteOffset": 492720,
      "target": 34962
    }
  ],
  "buffers": [
    {
      "byteLength": 576960,
      "uri": "Sub_Estrella.bin"
    }
  ],
  "images": [
    {
      "uri": "MAT_Estrella_baseColor.png"
    },
    {
      "uri": "MAT_Estrella_occlusionRoughnessMetallic.png"
    },
    {
      "uri": "MAT_Estrella_normal.png"
    }
  ],
  "materials": [
    {
      "alphaMode": "OPAQUE",
      "name": "MAT_Estrella",
      "normalTexture": {
        "index": 2
      },
      "occlusionTexture": {
        "index": 1
      },
      "pbrMetallicRoughness": {
        "baseColorTexture": {
          "index": 0
        },
        "metallicRoughnessTexture": {
          "index": 1
        }
      }
    }
  ],
  "meshes": [
    {
      "name": "MDL_Estrella",
      "primitives": [
        {
          "attributes": {
            "NORMAL": 2,
            "POSITION": 1,
            "TEXCOORD_0": 3
          },
          "indices": 0,
          "material": 0,
          "mode": 4
        }
      ]
    }
  ],
  "nodes": [
    {
      "children": [
        1
      ],
      "name": "RootNode"
    },
    {
      "children": [
        2
      ],
      "name": "MDL_Estrella"
    },
    {
      "mesh": 0,
      "name": "MDL_Estrella"
    }
  ],
  "samplers": [
    {
      "magFilter": 9729,
      "minFilter": 9985,
      "wrapS": 10497,
      "wrapT": 10497
    }
  ],
  "scene": 0,
  "scenes": [
    {
      "name": "Scene",
      "nodes": [
        0
      ]
    }
  ],
  "textures": [
    {
      "sampler": 0,
      "source": 0
    },
    {
      "sampler": 0,
      "source": 1
    },
    {
      "sampler": 0,
      "source": 2
    }
  ]
}