{
  "accessors": [
    {
      "bufferView": 0,
      "componentType": 5125,
      "count": 112512,
      "type": "SCALAR"
    },
    {
      "bufferView": 1,
      "componentType": 5126,
      "count": 29619,
      "max": [
        4.43940162658691,
        26.5554962158203,
        11.8686294555664
      ],
      "min": [
        -4.4336051940918,
        -0.0253448486328125,
        -15.0771751403809
      ],
      "type": "VEC3"
    },
    {
      "bufferView": 2,
      "componentType": 5126,
      "count": 29619,
      "type": "VEC3"
    },
    {
      "bufferView": 3,
      "componentType": 5126,
      "count": 29619,
      "type": "VEC2"
    }
  ],
  "asset": {
    "generator": "Substance Painter 6.2.0",
    "version": "2.0"
  },
  "bufferViews": [
    {
      "buffer": 0,
      "byteLength": 450048,
      "target": 34963
    },
    {
      "buffer": 0,
      "byteLength": 355428,
      "byteOffset": 450048,
      "target": 34962
    },
    {
      "buffer": 0,
      "byteLength": 355428,
      "byteOffset": 805476,
      "target": 34962
    },
    {
      "buffer": 0,
      "byteLength": 236952,
      "byteOffset": 1160904,
      "target": 34962
    }
  ],
  "buffers": [
    {
      "byteLength": 1397856,
      "uri": "Drill.bin"
    }
  ],
  "images": [
    {
      "uri": "Drill_baseColor.png"
    },
    {
      "uri": "Drill_occlusionRoughnessMetallic.png"
    }
  ],
  "materials": [
    {
      "alphaMode": "OPAQUE",
      "name": "Drill",
      "occlusionTexture": {
        "index": 1
      },
      "pbrMetallicRoughness": {
        "baseColorTexture": {
          "index": 0
        },
        "metallicRoughnessTexture": {
          "index": 1
        }
      }
    }
  ],
  "meshes": [
    {
      "name": "Drill",
      "primitives": [
        {
          "attributes": {
            "NORMAL": 2,
            "POSITION": 1,
            "TEXCOORD_0": 3
          },
          "indices": 0,
          "material": 0,
          "mode": 4
        }
      ]
    }
  ],
  "nodes": [
    {
      "children": [
        1
      ],
      "name": "RootNode"
    },
    {
      "children": [
        2
      ],
      "name": "Drill"
    },
    {
      "mesh": 0,
      "name": "Drill"
    }
  ],
  "samplers": [
    {
      "magFilter": 9729,
      "minFilter": 9985,
      "wrapS": 10497,
      "wrapT": 10497
    }
  ],
  "scene": 0,
  "scenes": [
    {
      "name": "Scene",
      "nodes": [
        0
      ]
    }
  ],
  "textures": [
    {
      "sampler": 0,
      "source": 0
    },
    {
      "sampler": 0,
      "source": 1
    }
  ]
}