{
  "accessors": [
    {
      "bufferView": 2,
      "componentType": 5126,
      "count": 65532,
      "max": [
        3.1362199783325195,
        2.0873498916625977,
        -9.5242204666137695
      ],
      "min": [
        -2.7575302124023438,
        -1.7203398942947388,
        -12.199899673461914
      ],
      "type": "VEC3"
    },
    {
      "bufferView": 2,
      "byteOffset": 786384,
      "componentType": 5126,
      "count": 65532,
      "max": [
        0.99979919195175171,
        0.9999316930770874,
        0.99999815225601196
      ],
      "min": [
        -0.99998843669891357,
        -0.99999350309371948,
        -0.99997329711914062
      ],
      "type": "VEC3"
    },
    {
      "bufferView": 1,
      "componentType": 5126,
      "count": 65532,
      "max": [
        0.93981099128723145,
        0.99800801277160645
      ],
      "min": [
        0.0018759999657049775,
        0.0019920000340789557
      ],
      "type": "VEC2"
    },
    {
      "bufferView": 1,
      "byteOffset": 524256,
      "componentType": 5126,
      "count": 65532,
      "max": [
        0.93981099128723145,
        0.99800801277160645
      ],
      "min": [
        0.0018759999657049775,
        0.0019920000340789557
      ],
      "type": "VEC2"
    },
    {
      "bufferView": 0,
      "componentType": 5125,
      "count": 308256,
      "max": [
        65531
      ],
      "min": [
        0
      ],
      "type": "SCALAR"
    },
    {
      "bufferView": 2,
      "byteOffset": 1572768,
      "componentType": 5126,
      "count": 12100,
      "max": [
        3.1163797378540039,
        1.8880099058151245,
        -9.5650501251220703
      ],
      "min": [
        -2.7561302185058594,
        -1.7313500642776489,
        -12.23900032043457
      ],
      "type": "VEC3"
    },
    {
      "bufferView": 2,
      "byteOffset": 1717968,
      "componentType": 5126,
      "count": 12100,
      "max": [
        0.99974894523620605,
        0.9999316930770874,
        0.99858295917510986
      ],
      "min": [
        -0.99989908933639526,
        -0.99971681833267212,
        -0.99941533803939819
      ],
      "type": "VEC3"
    },
    {
      "bufferView": 1,
      "byteOffset": 1048512,
      "componentType": 5126,
      "count": 12100,
      "max": [
        0.93981099128723145,
        0.99799597263336182
      ],
      "min": [
        0.0019620000384747982,
        0.0019920000340789557
      ],
      "type": "VEC2"
    },
    {
      "bufferView": 1,
      "byteOffset": 1145312,
      "componentType": 5126,
      "count": 12100,
      "max": [
        0.93981099128723145,
        0.99799597263336182
      ],
      "min": [
        0.0019620000384747982,
        0.0019920000340789557
      ],
      "type": "VEC2"
    },
    {
      "bufferView": 0,
      "byteOffset": 1233024,
      "componentType": 5125,
      "count": 51486,
      "max": [
        12099
      ],
      "min": [
        0
      ],
      "type": "SCALAR"
    }
  ],
  "asset": {
    "extras": {
      "author": "brycelynch (https://sketchfab.com/cyoung1971)",
      "license": "CC-BY-4.0 (http://creativecommons.org/licenses/by/4.0/)",
      "source": "https://sketchfab.com/3d-models/asics-gel-nimbus-21-51d857db53ca4fcc921fb4ed96084a92",
      "title": "Asics Gel Nimbus 21"
    },
    "generator": "Sketchfab-7.38.0",
    "version": "2.0"
  },
  "bufferViews": [
    {
      "buffer": 0,
      "byteLength": 1438968,
      "byteOffset": 0,
      "name": "floatBufferViews",
      "target": 34963
    },
    {
      "buffer": 0,
      "byteLength": 1242112,
      "byteOffset": 1438968,
      "byteStride": 8,
      "name": "floatBufferViews",
      "target": 34962
    },
    {
      "buffer": 0,
      "byteLength": 1863168,
      "byteOffset": 2681080,
      "byteStride": 12,
      "name": "floatBufferViews",
      "target": 34962
    }
  ],
  "buffers": [
    {
      "byteLength": 4544248,
      "uri": "scene.bin"
    }
  ],
  "images": [
    {
      "uri": "textures/material0_baseColor.jpeg"
    }
  ],
  "materials": [
    {
      "doubleSided": true,
      "emissiveFactor": [
        0,
        0,
        0
      ],
      "name": "material0",
      "pbrMetallicRoughness": {
        "baseColorFactor": [
          1,
          1,
          1,
          1
        ],
        "baseColorTexture": {
          "index": 0,
          "texCoord": 0
        },
        "metallicFactor": 0,
        "roughnessFactor": 0.95770514946237739
      }
    }
  ],
  "meshes": [
    {
      "name": "Model_material0_0",
      "primitives": [
        {
          "attributes": {
            "NORMAL": 1,
            "POSITION": 0,
            "TEXCOORD_0": 2,
            "TEXCOORD_1": 3
          },
          "indices": 4,
          "material": 0,
          "mode": 4
        }
      ]
    },
    {
      "name": "Model_material0_0",
      "primitives": [
        {
          "attributes": {
            "NORMAL": 6,
            "POSITION": 5,
            "TEXCOORD_0": 7,
            "TEXCOORD_1": 8
          },
          "indices": 9,
          "material": 0,
          "mode": 4
        }
      ]
    }
  ],
  "nodes": [
    {
      "children": [
        1
      ],
      "name": "RootNode (gltf orientation matrix)",
      "rotation": [
        -0.70710678118654746,
        -0,
        -0,
        0.70710678118654757
      ]
    },
    {
      "children": [
        2
      ],
      "matrix": [
        0.93272989988327026,
        -0.096224434673786163,
        -0.34749940037727356,
        0,
        -0.35982224345207214,
        -0.31066939234733582,
        -0.87977981567382812,
        0,
        -0.023301117122173309,
        0.94563490152359009,
        -0.32439431548118591,
        0,
        0.20224225521087646,
        -10.505110740661621,
        14.320737838745117,
        1
      ],
      "name": "RootNode (model correction matrix)"
    },
    {
      "children": [
        3
      ],
      "matrix": [
        1,
        0,
        0,
        0,
        0,
        -1,
        0,
        0,
        0,
        0,
        -1,
        0,
        0,
        0,
        0,
        1
      ],
      "name": "6026f8c207da4f05b3c8d6895ff40d17.fbx"
    },
    {
      "children": [
        4
      ],
      "name": "RootNode"
    },
    {
      "children": [
        5,
        6
      ],
      "name": "Model"
    },
    {
      "mesh": 0,
      "name": "Model_material0_0"
    },
    {
      "mesh": 1,
      "name": "Model_material0_0"
    }
  ],
  "samplers": [
    {
      "magFilter": 9729,
      "minFilter": 9987,
      "wrapS": 10497,
      "wrapT": 10497
    }
  ],
  "scene": 0,
  "scenes": [
    {
      "name": "OSG_Scene",
      "nodes": [
        0
      ]
    }
  ],
  "textures": [
    {
      "sampler": 0,
      "source": 0
    }
  ]
}

