{
  "accessors": [
    {
      "bufferView": 0,
      "componentType": 5125,
      "count": 19350,
      "type": "SCALAR"
    },
    {
      "bufferView": 1,
      "componentType": 5126,
      "count": 3428,
      "max": [
        5.43198299407959,
        17.9653263092041,
        11.5938339233398
      ],
      "min": [
        -7.21275329589844,
        -0.0579013824462891,
        -3.42233276367188
      ],
      "type": "VEC3"
    },
    {
      "bufferView": 2,
      "componentType": 5126,
      "count": 3428,
      "type": "VEC3"
    },
    {
      "bufferView": 3,
      "componentType": 5126,
      "count": 3428,
      "type": "VEC2"
    }
  ],
  "asset": {
    "generator": "Substance Painter 6.2.0",
    "version": "2.0"
  },
  "bufferViews": [
    {
      "buffer": 0,
      "byteLength": 77400,
      "target": 34963
    },
    {
      "buffer": 0,
      "byteLength": 41136,
      "byteOffset": 77400,
      "target": 34962
    },
    {
      "buffer": 0,
      "byteLength": 41136,
      "byteOffset": 118536,
      "target": 34962
    },
    {
      "buffer": 0,
      "byteLength": 27424,
      "byteOffset": 159672,
      "target": 34962
    }
  ],
  "buffers": [
    {
      "byteLength": 187096,
      "uri": "Flower.bin"
    }
  ],
  "images": [
    {
      "uri": "Flower_baseColor.png"
    },
    {
      "uri": "Flower_occlusionRoughnessMetallic.png"
    },
    {
      "uri": "Flower_normal.png"
    }
  ],
  "materials": [
    {
      "alphaMode": "OPAQUE",
      "name": "Flower",
      "normalTexture": {
        "index": 2
      },
      "occlusionTexture": {
        "index": 1
      },
      "pbrMetallicRoughness": {
        "baseColorTexture": {
          "index": 0
        },
        "metallicRoughnessTexture": {
          "index": 1
        }
      }
    }
  ],
  "meshes": [
    {
      "name": "Flower_Low:Group59299",
      "primitives": [
        {
          "attributes": {
            "NORMAL": 2,
            "POSITION": 1,
            "TEXCOORD_0": 3
          },
          "indices": 0,
          "material": 0,
          "mode": 4
        }
      ]
    }
  ],
  "nodes": [
    {
      "children": [
        1
      ],
      "name": "RootNode"
    },
    {
      "children": [
        2
      ],
      "name": "Flower_Low:Group59299"
    },
    {
      "mesh": 0,
      "name": "Flower_Low:Group59299"
    }
  ],
  "samplers": [
    {
      "magFilter": 9729,
      "minFilter": 9985,
      "wrapS": 10497,
      "wrapT": 10497
    }
  ],
  "scene": 0,
  "scenes": [
    {
      "name": "Scene",
      "nodes": [
        0
      ]
    }
  ],
  "textures": [
    {
      "sampler": 0,
      "source": 0
    },
    {
      "sampler": 0,
      "source": 1
    },
    {
      "sampler": 0,
      "source": 2
    }
  ]
}