{
  "accessors": [
    {
      "bufferView": 0,
      "componentType": 5125,
      "count": 1500000,
      "type": "SCALAR"
    },
    {
      "bufferView": 1,
      "componentType": 5126,
      "count": 265906,
      "max": [
        409.446563720703,
        818.773193359375,
        62.8063735961914
      ],
      "min": [
        -404.221984863281,
        -19.6619873046875,
        -6.47715187072754
      ],
      "type": "VEC3"
    },
    {
      "bufferView": 2,
      "componentType": 5126,
      "count": 265906,
      "type": "VEC3"
    },
    {
      "bufferView": 3,
      "componentType": 5126,
      "count": 265906,
      "type": "VEC2"
    }
  ],
  "asset": {
    "generator": "Substance Painter 6.2.0",
    "version": "2.0"
  },
  "bufferViews": [
    {
      "buffer": 0,
      "byteLength": 6000000,
      "target": 34963
    },
    {
      "buffer": 0,
      "byteLength": 3190872,
      "byteOffset": 6000000,
      "target": 34962
    },
    {
      "buffer": 0,
      "byteLength": 3190872,
      "byteOffset": 9190872,
      "target": 34962
    },
    {
      "buffer": 0,
      "byteLength": 2127248,
      "byteOffset": 12381744,
      "target": 34962
    }
  ],
  "buffers": [
    {
      "byteLength": 14508992,
      "uri": "Cuadro.bin"
    }
  ],
  "images": [
    {
      "uri": "Cuadro_material_1_baseColor.png"
    },
    {
      "uri": "Cuadro_material_1_occlusionRoughnessMetallic.png"
    },
    {
      "uri": "Cuadro_material_1_normal.png"
    }
  ],
  "materials": [
    {
      "alphaMode": "OPAQUE",
      "name": "Cuadro_material_1",
      "normalTexture": {
        "index": 2
      },
      "occlusionTexture": {
        "index": 1
      },
      "pbrMetallicRoughness": {
        "baseColorTexture": {
          "index": 0
        },
        "metallicRoughnessTexture": {
          "index": 1
        }
      }
    }
  ],
  "meshes": [
    {
      "name": "MDL_Cuadro",
      "primitives": [
        {
          "attributes": {
            "NORMAL": 2,
            "POSITION": 1,
            "TEXCOORD_0": 3
          },
          "indices": 0,
          "material": 0,
          "mode": 4
        }
      ]
    }
  ],
  "nodes": [
    {
      "children": [
        1
      ],
      "name": "RootNode"
    },
    {
      "children": [
        2
      ],
      "name": "MDL_Cuadro"
    },
    {
      "mesh": 0,
      "name": "MDL_Cuadro"
    }
  ],
  "samplers": [
    {
      "magFilter": 9729,
      "minFilter": 9985,
      "wrapS": 10497,
      "wrapT": 10497
    }
  ],
  "scene": 0,
  "scenes": [
    {
      "name": "Scene",
      "nodes": [
        0
      ]
    }
  ],
  "textures": [
    {
      "sampler": 0,
      "source": 0
    },
    {
      "sampler": 0,
      "source": 1
    },
    {
      "sampler": 0,
      "source": 2
    }
  ]
}