{
  "accessors": [
    {
      "bufferView": 0,
      "componentType": 5125,
      "count": 31680,
      "type": "SCALAR"
    },
    {
      "bufferView": 1,
      "componentType": 5126,
      "count": 5538,
      "max": [
        9.49745941162109,
        47.5806655883789,
        9.53948974609375
      ],
      "min": [
        -9.56723785400391,
        0.00211524963378906,
        -9.43545532226563
      ],
      "type": "VEC3"
    },
    {
      "bufferView": 2,
      "componentType": 5126,
      "count": 5538,
      "type": "VEC3"
    },
    {
      "bufferView": 3,
      "componentType": 5126,
      "count": 5538,
      "type": "VEC2"
    }
  ],
  "asset": {
    "generator": "Substance Painter 6.2.0",
    "version": "2.0"
  },
  "bufferViews": [
    {
      "buffer": 0,
      "byteLength": 126720,
      "target": 34963
    },
    {
      "buffer": 0,
      "byteLength": 66456,
      "byteOffset": 126720,
      "target": 34962
    },
    {
      "buffer": 0,
      "byteLength": 66456,
      "byteOffset": 193176,
      "target": 34962
    },
    {
      "buffer": 0,
      "byteLength": 44304,
      "byteOffset": 259632,
      "target": 34962
    }
  ],
  "buffers": [
    {
      "byteLength": 303936,
      "uri": "Jarron.bin"
    }
  ],
  "images": [
    {
      "uri": "Jarron_baseColor.png"
    },
    {
      "uri": "Jarron_occlusionRoughnessMetallic.png"
    }
  ],
  "materials": [
    {
      "alphaMode": "OPAQUE",
      "name": "Jarron",
      "occlusionTexture": {
        "index": 1
      },
      "pbrMetallicRoughness": {
        "baseColorTexture": {
          "index": 0
        },
        "metallicRoughnessTexture": {
          "index": 1
        }
      }
    }
  ],
  "meshes": [
    {
      "name": "Vase_obj1",
      "primitives": [
        {
          "attributes": {
            "NORMAL": 2,
            "POSITION": 1,
            "TEXCOORD_0": 3
          },
          "indices": 0,
          "material": 0,
          "mode": 4
        }
      ]
    }
  ],
  "nodes": [
    {
      "children": [
        1
      ],
      "name": "RootNode"
    },
    {
      "children": [
        2
      ],
      "name": "Vase_obj1"
    },
    {
      "mesh": 0,
      "name": "Vase_obj1"
    }
  ],
  "samplers": [
    {
      "magFilter": 9729,
      "minFilter": 9985,
      "wrapS": 10497,
      "wrapT": 10497
    }
  ],
  "scene": 0,
  "scenes": [
    {
      "name": "Scene",
      "nodes": [
        0
      ]
    }
  ],
  "textures": [
    {
      "sampler": 0,
      "source": 0
    },
    {
      "sampler": 0,
      "source": 1
    }
  ]
}