{
  "accessors": [
    {
      "bufferView": 0,
      "componentType": 5125,
      "count": 193656,
      "type": "SCALAR"
    },
    {
      "bufferView": 1,
      "componentType": 5126,
      "count": 193656,
      "max": [
        3.50127577781677,
        28.3236694335938,
        5.57901477813721
      ],
      "min": [
        -3.74843621253967,
        -0.0257997512817383,
        -11.8191604614258
      ],
      "type": "VEC3"
    },
    {
      "bufferView": 2,
      "componentType": 5126,
      "count": 193656,
      "type": "VEC3"
    },
    {
      "bufferView": 3,
      "componentType": 5126,
      "count": 193656,
      "type": "VEC2"
    }
  ],
  "asset": {
    "generator": "Substance Painter 6.2.0",
    "version": "2.0"
  },
  "bufferViews": [
    {
      "buffer": 0,
      "byteLength": 774624,
      "target": 34963
    },
    {
      "buffer": 0,
      "byteLength": 2323872,
      "byteOffset": 774624,
      "target": 34962
    },
    {
      "buffer": 0,
      "byteLength": 2323872,
      "byteOffset": 3098496,
      "target": 34962
    },
    {
      "buffer": 0,
      "byteLength": 1549248,
      "byteOffset": 5422368,
      "target": 34962
    }
  ],
  "buffers": [
    {
      "byteLength": 6971616,
      "uri": "EVA.bin"
    }
  ],
  "images": [
    {
      "uri": "Eva_obj1_material_1_baseColor.png"
    },
    {
      "uri": "Eva_obj1_material_1_occlusionRoughnessMetallic.png"
    }
  ],
  "materials": [
    {
      "alphaMode": "OPAQUE",
      "name": "Eva_obj1_material_1",
      "occlusionTexture": {
        "index": 1
      },
      "pbrMetallicRoughness": {
        "baseColorTexture": {
          "index": 0
        },
        "metallicRoughnessTexture": {
          "index": 1
        }
      }
    }
  ],
  "meshes": [
    {
      "name": "Eva_obj1:Mesh",
      "primitives": [
        {
          "attributes": {
            "NORMAL": 2,
            "POSITION": 1,
            "TEXCOORD_0": 3
          },
          "indices": 0,
          "material": 0,
          "mode": 4
        }
      ]
    }
  ],
  "nodes": [
    {
      "children": [
        1
      ],
      "name": "RootNode"
    },
    {
      "children": [
        2
      ],
      "name": "Eva_obj1:Mesh"
    },
    {
      "mesh": 0,
      "name": "Eva_obj1:Mesh"
    }
  ],
  "samplers": [
    {
      "magFilter": 9729,
      "minFilter": 9985,
      "wrapS": 10497,
      "wrapT": 10497
    }
  ],
  "scene": 0,
  "scenes": [
    {
      "name": "Scene",
      "nodes": [
        0
      ]
    }
  ],
  "textures": [
    {
      "sampler": 0,
      "source": 0
    },
    {
      "sampler": 0,
      "source": 1
    }
  ]
}