{
  "accessors": [
    {
      "bufferView": 0,
      "componentType": 5125,
      "count": 1535778,
      "type": "SCALAR"
    },
    {
      "bufferView": 1,
      "componentType": 5126,
      "count": 276789,
      "max": [
        10.9596252441406,
        22.9493446350098,
        14.5754432678223
      ],
      "min": [
        -8.79103851318359,
        -0.0343313217163086,
        -12.4855842590332
      ],
      "type": "VEC3"
    },
    {
      "bufferView": 2,
      "componentType": 5126,
      "count": 276789,
      "type": "VEC3"
    },
    {
      "bufferView": 3,
      "componentType": 5126,
      "count": 276789,
      "type": "VEC2"
    },
    {
      "bufferView": 4,
      "componentType": 5125,
      "count": 3996,
      "type": "SCALAR"
    },
    {
      "bufferView": 5,
      "componentType": 5126,
      "count": 1184,
      "max": [
        7.09365081787109,
        18.1435642242432,
        4.569091796875
      ],
      "min": [
        -9.5367431640625e-07,
        9.5367431640625e-07,
        -4.56909227371216
      ],
      "type": "VEC3"
    },
    {
      "bufferView": 6,
      "componentType": 5126,
      "count": 1184,
      "type": "VEC3"
    },
    {
      "bufferView": 7,
      "componentType": 5126,
      "count": 1184,
      "type": "VEC2"
    },
    {
      "bufferView": 8,
      "componentType": 5125,
      "count": 2724,
      "type": "SCALAR"
    },
    {
      "bufferView": 9,
      "componentType": 5126,
      "count": 794,
      "max": [
        7.11997318267822,
        18.0486488342285,
        4.59745645523071
      ],
      "min": [
        -0.165950775146484,
        17.4635581970215,
        -4.59745693206787
      ],
      "type": "VEC3"
    },
    {
      "bufferView": 10,
      "componentType": 5126,
      "count": 794,
      "type": "VEC3"
    },
    {
      "bufferView": 11,
      "componentType": 5126,
      "count": 794,
      "type": "VEC2"
    }
  ],
  "asset": {
    "generator": "Substance Painter 6.2.0",
    "version": "2.0"
  },
  "bufferViews": [
    {
      "buffer": 0,
      "byteLength": 6143112,
      "target": 34963
    },
    {
      "buffer": 0,
      "byteLength": 3321468,
      "byteOffset": 6143112,
      "target": 34962
    },
    {
      "buffer": 0,
      "byteLength": 3321468,
      "byteOffset": 9464580,
      "target": 34962
    },
    {
      "buffer": 0,
      "byteLength": 2214312,
      "byteOffset": 12786048,
      "target": 34962
    },
    {
      "buffer": 0,
      "byteLength": 15984,
      "byteOffset": 15000360,
      "target": 34963
    },
    {
      "buffer": 0,
      "byteLength": 14208,
      "byteOffset": 15016344,
      "target": 34962
    },
    {
      "buffer": 0,
      "byteLength": 14208,
      "byteOffset": 15030552,
      "target": 34962
    },
    {
      "buffer": 0,
      "byteLength": 9472,
      "byteOffset": 15044760,
      "target": 34962
    },
    {
      "buffer": 0,
      "byteLength": 10896,
      "byteOffset": 15054232,
      "target": 34963
    },
    {
      "buffer": 0,
      "byteLength": 9528,
      "byteOffset": 15065128,
      "target": 34962
    },
    {
      "buffer": 0,
      "byteLength": 9528,
      "byteOffset": 15074656,
      "target": 34962
    },
    {
      "buffer": 0,
      "byteLength": 6352,
      "byteOffset": 15084184,
      "target": 34962
    }
  ],
  "buffers": [
    {
      "byteLength": 15090536,
      "uri": "Sub_Nespresso.bin"
    }
  ],
  "images": [
    {
      "uri": "MAT_Nespresso_baseColor.png"
    },
    {
      "uri": "MAT_Nespresso_occlusionRoughnessMetallic.png"
    },
    {
      "uri": "MAT_Nespresso_normal.png"
    },
    {
      "uri": "MAT_Nespresso_emissive.png"
    },
    {
      "uri": "MAT_Plastico_baseColor.png"
    },
    {
      "uri": "MAT_Plastico_occlusionRoughnessMetallic.png"
    },
    {
      "uri": "MAT_Plastico_normal.png"
    },
    {
      "uri": "MAT_PlasticoTransparente_baseColor.png"
    },
    {
      "uri": "MAT_PlasticoTransparente_occlusionRoughnessMetallic.png"
    }
  ],
  "materials": [
    {
      "alphaMode": "OPAQUE",
      "emissiveFactor": [
        1.0,
        1.0,
        1.0
      ],
      "emissiveTexture": {
        "index": 3
      },
      "name": "MAT_Nespresso",
      "normalTexture": {
        "index": 2
      },
      "occlusionTexture": {
        "index": 1
      },
      "pbrMetallicRoughness": {
        "baseColorTexture": {
          "index": 0
        },
        "metallicRoughnessTexture": {
          "index": 1
        }
      }
    },
    {
      "alphaMode": "OPAQUE",
      "name": "MAT_Plastico",
      "normalTexture": {
        "index": 6
      },
      "occlusionTexture": {
        "index": 5
      },
      "pbrMetallicRoughness": {
        "baseColorTexture": {
          "index": 4
        },
        "metallicRoughnessTexture": {
          "index": 5
        }
      }
    },
    {
      "alphaMode": "BLEND",
      "name": "MAT_PlasticoTransparente",
      "occlusionTexture": {
        "index": 8
      },
      "pbrMetallicRoughness": {
        "baseColorTexture": {
          "index": 7
        },
        "metallicRoughnessTexture": {
          "index": 8
        }
      }
    }
  ],
  "meshes": [
    {
      "name": "MDL_Nespresso",
      "primitives": [
        {
          "attributes": {
            "NORMAL": 2,
            "POSITION": 1,
            "TEXCOORD_0": 3
          },
          "indices": 0,
          "material": 0,
          "mode": 4
        }
      ]
    },
    {
      "name": "NespressoAgua",
      "primitives": [
        {
          "attributes": {
            "NORMAL": 6,
            "POSITION": 5,
            "TEXCOORD_0": 7
          },
          "indices": 4,
          "material": 2,
          "mode": 4
        }
      ]
    },
    {
      "name": "NespressoTapa",
      "primitives": [
        {
          "attributes": {
            "NORMAL": 10,
            "POSITION": 9,
            "TEXCOORD_0": 11
          },
          "indices": 8,
          "material": 1,
          "mode": 4
        }
      ]
    }
  ],
  "nodes": [
    {
      "children": [
        1,
        3
      ],
      "name": "RootNode"
    },
    {
      "children": [
        2
      ],
      "name": "MDL_Nespresso"
    },
    {
      "mesh": 0,
      "name": "MDL_Nespresso"
    },
    {
      "children": [
        4,
        6
      ],
      "name": "NespressoAgua",
      "rotation": [
        0.0,
        0.872613370418549,
        0.0,
        0.488411635160446
      ],
      "translation": [
        -3.9252724647522,
        0.243657320737839,
        -6.99092483520508
      ]
    },
    {
      "children": [
        5
      ],
      "name": "NespressoAgua",
      "rotation": [
        -1.66121274917938e-34,
        2.77555756156289e-17,
        -7.34114313681262e-34,
        1.0
      ],
      "translation": [
        0.0889174342155457,
        0.0,
        0.0451506264507771
      ]
    },
    {
      "mesh": 1,
      "name": "NespressoAgua"
    },
    {
      "children": [
        7
      ],
      "name": "NespressoTapa",
      "rotation": [
        -1.66121274917938e-34,
        2.77555756156289e-17,
        -7.34114313681262e-34,
        1.0
      ],
      "translation": [
        0.0889174342155457,
        0.0,
        0.0451506264507771
      ]
    },
    {
      "mesh": 2,
      "name": "NespressoTapa"
    }
  ],
  "samplers": [
    {
      "magFilter": 9729,
      "minFilter": 9985,
      "wrapS": 10497,
      "wrapT": 10497
    }
  ],
  "scene": 0,
  "scenes": [
    {
      "name": "Scene",
      "nodes": [
        0
      ]
    }
  ],
  "textures": [
    {
      "sampler": 0,
      "source": 0
    },
    {
      "sampler": 0,
      "source": 1
    },
    {
      "sampler": 0,
      "source": 2
    },
    {
      "sampler": 0,
      "source": 3
    },
    {
      "sampler": 0,
      "source": 4
    },
    {
      "sampler": 0,
      "source": 5
    },
    {
      "sampler": 0,
      "source": 6
    },
    {
      "sampler": 0,
      "source": 7
    },
    {
      "sampler": 0,
      "source": 8
    }
  ]
}