{
  "accessors": [
    {
      "bufferView": 0,
      "componentType": 5125,
      "count": 150000,
      "type": "SCALAR"
    },
    {
      "bufferView": 1,
      "componentType": 5126,
      "count": 26875,
      "max": [
        4.93018341064453,
        15.9980449676514,
        4.55392456054688
      ],
      "min": [
        -4.92823791503906,
        -0.0063481330871582,
        -5.38424158096313
      ],
      "type": "VEC3"
    },
    {
      "bufferView": 2,
      "componentType": 5126,
      "count": 26875,
      "type": "VEC3"
    },
    {
      "bufferView": 3,
      "componentType": 5126,
      "count": 26875,
      "type": "VEC2"
    }
  ],
  "asset": {
    "generator": "Substance Painter 6.2.0",
    "version": "2.0"
  },
  "bufferViews": [
    {
      "buffer": 0,
      "byteLength": 600000,
      "target": 34963
    },
    {
      "buffer": 0,
      "byteLength": 322500,
      "byteOffset": 600000,
      "target": 34962
    },
    {
      "buffer": 0,
      "byteLength": 322500,
      "byteOffset": 922500,
      "target": 34962
    },
    {
      "buffer": 0,
      "byteLength": 215000,
      "byteOffset": 1245000,
      "target": 34962
    }
  ],
  "buffers": [
    {
      "byteLength": 1460000,
      "uri": "Candle.bin"
    }
  ],
  "images": [
    {
      "uri": "MAT_Candle_baseColor.png"
    },
    {
      "uri": "MAT_Candle_occlusionRoughnessMetallic.png"
    },
    {
      "uri": "MAT_Candle_normal.png"
    }
  ],
  "materials": [
    {
      "alphaMode": "OPAQUE",
      "name": "MAT_Candle",
      "normalTexture": {
        "index": 2
      },
      "occlusionTexture": {
        "index": 1
      },
      "pbrMetallicRoughness": {
        "baseColorTexture": {
          "index": 0
        },
        "metallicRoughnessTexture": {
          "index": 1
        }
      }
    }
  ],
  "meshes": [
    {
      "name": "MDL_Candle",
      "primitives": [
        {
          "attributes": {
            "NORMAL": 2,
            "POSITION": 1,
            "TEXCOORD_0": 3
          },
          "indices": 0,
          "material": 0,
          "mode": 4
        }
      ]
    }
  ],
  "nodes": [
    {
      "children": [
        1
      ],
      "name": "RootNode"
    },
    {
      "children": [
        2
      ],
      "name": "MDL_Candle"
    },
    {
      "mesh": 0,
      "name": "MDL_Candle"
    }
  ],
  "samplers": [
    {
      "magFilter": 9729,
      "minFilter": 9985,
      "wrapS": 10497,
      "wrapT": 10497
    }
  ],
  "scene": 0,
  "scenes": [
    {
      "name": "Scene",
      "nodes": [
        0
      ]
    }
  ],
  "textures": [
    {
      "sampler": 0,
      "source": 0
    },
    {
      "sampler": 0,
      "source": 1
    },
    {
      "sampler": 0,
      "source": 2
    }
  ]
}