{
  "accessors": [
    {
      "bufferView": 0,
      "componentType": 5125,
      "count": 253281,
      "type": "SCALAR"
    },
    {
      "bufferView": 1,
      "componentType": 5126,
      "count": 56896,
      "max": [
        22.6763935089111,
        35.5409698486328,
        14.4466257095337
      ],
      "min": [
        -22.6696891784668,
        -0.114889144897461,
        -16.7548122406006
      ],
      "type": "VEC3"
    },
    {
      "bufferView": 2,
      "componentType": 5126,
      "count": 56896,
      "type": "VEC3"
    },
    {
      "bufferView": 3,
      "componentType": 5126,
      "count": 56896,
      "type": "VEC2"
    }
  ],
  "asset": {
    "generator": "Substance Painter 6.2.0",
    "version": "2.0"
  },
  "bufferViews": [
    {
      "buffer": 0,
      "byteLength": 1013124,
      "target": 34963
    },
    {
      "buffer": 0,
      "byteLength": 682752,
      "byteOffset": 1013124,
      "target": 34962
    },
    {
      "buffer": 0,
      "byteLength": 682752,
      "byteOffset": 1695876,
      "target": 34962
    },
    {
      "buffer": 0,
      "byteLength": 455168,
      "byteOffset": 2378628,
      "target": 34962
    }
  ],
  "buffers": [
    {
      "byteLength": 2833796,
      "uri": "Sub_Cojin.bin"
    }
  ],
  "images": [
    {
      "uri": "MAT_CojinGris_baseColor.png"
    },
    {
      "uri": "MAT_CojinGris_occlusionRoughnessMetallic.png"
    },
    {
      "uri": "MAT_CojinGris_normal.png"
    },
    {
      "uri": "MAT_CojinGris_emissive.png"
    }
  ],
  "materials": [
    {
      "alphaMode": "OPAQUE",
      "emissiveFactor": [
        1.0,
        1.0,
        1.0
      ],
      "emissiveTexture": {
        "index": 3
      },
      "name": "MAT_CojinGris",
      "normalTexture": {
        "index": 2
      },
      "occlusionTexture": {
        "index": 1
      },
      "pbrMetallicRoughness": {
        "baseColorTexture": {
          "index": 0
        },
        "metallicRoughnessTexture": {
          "index": 1
        }
      }
    }
  ],
  "meshes": [
    {
      "name": "MDL_CojinGris",
      "primitives": [
        {
          "attributes": {
            "NORMAL": 2,
            "POSITION": 1,
            "TEXCOORD_0": 3
          },
          "indices": 0,
          "material": 0,
          "mode": 4
        }
      ]
    }
  ],
  "nodes": [
    {
      "children": [
        1
      ],
      "name": "RootNode"
    },
    {
      "children": [
        2
      ],
      "name": "MDL_CojinGris"
    },
    {
      "mesh": 0,
      "name": "MDL_CojinGris"
    }
  ],
  "samplers": [
    {
      "magFilter": 9729,
      "minFilter": 9985,
      "wrapS": 10497,
      "wrapT": 10497
    }
  ],
  "scene": 0,
  "scenes": [
    {
      "name": "Scene",
      "nodes": [
        0
      ]
    }
  ],
  "textures": [
    {
      "sampler": 0,
      "source": 0
    },
    {
      "sampler": 0,
      "source": 1
    },
    {
      "sampler": 0,
      "source": 2
    },
    {
      "sampler": 0,
      "source": 3
    }
  ]
}